<mxfile host="app.diagrams.net" modified="2023-09-02T16:18:49.289Z" agent="Mozilla/5.0 (X11; Linux x86_64) AppleWebKit/537.36 (KHTML, like Gecko) Chrome/115.0.0.0 Safari/537.36" version="21.6.9" etag="6B2uDkiv8qqA9i0IlNsC" type="github">
  <diagram name="Page-1" id="3rZtHNZduUfZn0CEZAPK">
    <mxGraphModel>
      <root>
        <mxCell id="0" />
        <mxCell id="1" parent="0" />
      </root>
    </mxGraphModel>
  </diagram>
</mxfile>
